<svg width="17" height="23" viewBox="0 0 17 23" fill="none" xmlns="http://www.w3.org/2000/svg">
<path fill-rule="evenodd" clip-rule="evenodd" d="M8.50028 12.538C9.46642 12.538 10.393 12.1417 11.0762 11.4363C11.7593 10.7309 12.1431 9.77414 12.1431 8.77655C12.1431 7.77896 11.7593 6.82223 11.0762 6.11683C10.393 5.41143 9.46642 5.01514 8.50028 5.01514C7.53413 5.01514 6.60756 5.41143 5.92439 6.11683C5.24122 6.82223 4.85742 7.77896 4.85742 8.77655C4.85742 9.77414 5.24122 10.7309 5.92439 11.4363C6.60756 12.1417 7.53413 12.538 8.50028 12.538ZM8.50028 6.26894C9.14438 6.26894 9.76209 6.53314 10.2175 7.0034C10.673 7.47367 10.9289 8.11149 10.9289 8.77655C10.9289 9.44161 10.673 10.0794 10.2175 10.5497C9.76209 11.02 9.14438 11.2842 8.50028 11.2842C7.85618 11.2842 7.23847 11.02 6.78302 10.5497C6.32757 10.0794 6.07171 9.44161 6.07171 8.77655C6.07171 8.11149 6.32757 7.47367 6.78302 7.0034C7.23847 6.53314 7.85618 6.26894 8.50028 6.26894Z" fill="#353535"/>
<path fill-rule="evenodd" clip-rule="evenodd" d="M0 8.93085C0 13.9486 5.12793 22.5685 8.5 22.5685C11.8721 22.5685 17 13.9486 17 8.93085C17 4.00089 13.1969 0 8.5 0C3.80314 0 0 4.00089 0 8.93085ZM15.7857 8.93085C15.7857 13.3442 11.0451 21.3147 8.5 21.3147C5.95486 21.3147 1.21429 13.3442 1.21429 8.93085C1.21429 4.68923 4.47829 1.2538 8.5 1.2538C12.5217 1.2538 15.7857 4.68923 15.7857 8.93085Z" fill="#353535"/>
</svg>
