<svg width="20" height="20" viewBox="0 0 20 20" fill="none" xmlns="http://www.w3.org/2000/svg">
<path d="M0.650391 9.6499C0.650391 10.8318 0.883182 12.0021 1.33547 13.0941C1.78777 14.186 2.4507 15.1781 3.28643 16.0139C4.12216 16.8496 5.11431 17.5125 6.20624 17.9648C7.29817 18.4171 8.46849 18.6499 9.65039 18.6499C10.8323 18.6499 12.0026 18.4171 13.0945 17.9648C14.1865 17.5125 15.1786 16.8496 16.0144 16.0139C16.8501 15.1781 17.513 14.186 17.9653 13.0941C18.4176 12.0021 18.6504 10.8318 18.6504 9.6499C18.6504 7.26295 17.7022 4.97377 16.0144 3.28594C14.3265 1.59811 12.0373 0.649902 9.65039 0.649902C7.26344 0.649902 4.97426 1.59811 3.28643 3.28594C1.5986 4.97377 0.650391 7.26295 0.650391 9.6499Z" stroke="#353535" stroke-width="1.3" stroke-linecap="round" stroke-linejoin="round"/>
<path d="M9.65039 4.6499V9.6499L12.6504 12.6499" stroke="#353535" stroke-width="1.3" stroke-linecap="round" stroke-linejoin="round"/>
</svg>
